/* XPM */
static char *_ac8b30fef8a40acd734f830240c91b93wXtvngNqmuBRwOC[] = {
/* columns rows colors chars-per-pixel */
"16 16 5 1 ",
"  c None",
". c #5C4E92",
"X c #766DAA",
"o c #DDD5DE",
"O c #F3F2C0",
/* pixels */
"   ...    ...   ",
"  .OOO.  .OOO.  ",
"  .OOO....OOO.  ",
"  .OOOooooOOO.  ",
"  .OOOOOOOOOO.  ",
"  .OOOOOOOOOO.  ",
" ..OOOOOOOOOO.. ",
"  .OOOOOOOOOO.  ",
" ..OOOOOOOOOO.. ",
"  .OOOOOOOOOO.  ",
"   ..XXXXXX..   ",
"  .oOXX..XXOo.  ",
"  .oOO.OO.OOo.  ",
"   ..OOOOOO..   ",
"    .oo..oo.    ",
"     ..  ..     "
};
