/* XPM */
static char *_dc21703f1f84d97bf600ab81c07bd5duIF7xhgGvxarWwHx[] = {
/* columns rows colors chars-per-pixel */
"100 100 20 1 ",
"  c black",
". c #4C468B",
"X c #555793",
"o c #5F699C",
"O c #7180B1",
"+ c #8599C7",
"@ c #BBBAC8",
"# c #BEBFCB",
"$ c #BBBFCE",
"% c #BDC2CF",
"& c #C1C5CE",
"* c #D1D1D4",
"= c #D3D4D6",
"- c #D2D7D9",
"; c #D5D8D8",
": c #D7DDDF",
"> c #D9DCDC",
", c #DCE0D2",
"< c #DDE1E0",
"1 c #F3F4E7",
/* pixels */
"         111111111######11111111111111111111111111111111111111111111111111111@@@@@@@111111111       ",
"         111111111######11111111111111111111111111111111111111111111111111111@@@@@@@111111111       ",
"         111111111######11111111111111111111111111111111111111111111111111111@@@@@@@111111111       ",
"         111111111######11111111111111111111111111111111111111111111111111111@@@@@@@111111111       ",
"         111111111######11111111111111111111111111111111111111111111111111111@@@@@@@111111111       ",
"         111111111######11111111111111111111111111111111111111111111111111111@@@@@@@111111111       ",
"         111111111111111=11111111111111111111111111111111111111111111111111**1111111111111111       ",
"111111111########11111111XXXXXXXXXXXXXXXXXXXXXXXXXXXXXXXXXXXXXXXXXXX.......1111111111@@@@@@@@1111111",
"111111111########11111111XXXXXXXXXXXXXXXXXXXXXXXXXXXXXXXXXXXXXXXXXXX.......1111111111@@@@@@@@1111111",
"111111111########11111111XXXXXXXXXXXXXXXXXXXXXXXXXXXXXXXXXXXXXXXXXXX.......1111111111@@@@@@@@1111111",
"111111111########11111111XXXXXXXXXXXXXXXXXXXXXXXXXXXXXXXXXXXXXXXXXXX.......1111111111@@@@@@@@1111111",
"111111111########11111111XXXXXXXXXXXXXXXXXXXXXXXXXXXXXXXXXXXXXXXXXXX.......1111111111@@@@@@@@1111111",
"111111111########11111111XXXXXXXXXXXXXXXXXXXXXXXXXXXXXXXXXXXXXXXXXXX.......1111111111@@@@@@@@1111111",
"11111111111111111=1111111XXXXXXXXXXXXXXXXXXXXXXXXXXXXXXXXXXXXXXXXXXX.......111111111*111111111111111",
"111111111111111111XXXXXXX++++++++++++++++++++++++++++++++++OOOOOOOOOOOOOOOO.........1111111111111111",
"111111111111111111XXXXXXX++++++++++++++++++++++++++++++++++OOOOOOOOOOOOOOOO.........1111111111111111",
"111111111111111111XXXXXXX++++++++++++++++++++++++++++++++++OOOOOOOOOOOOOOOO.........1111111111111111",
"111111111111111111XXXXXXX++++++++++++++++++++++++++++++++++OOOOOOOOOOOOOOOO.........1111111111111111",
"111111111111111111XXXXXXX++++++++++++++++++++++++++++++++++OOOOOOOOOOOOOOOO.........1111111111111111",
"111111111111111111XXXXXXX++++++++++++++++++++++++++++++++++OOOOOOOOOOOOOOOO.........1111111111111111",
"11111111111111111=1111111..................................................111111111*111111111111111",
"111111111%%%%%%%%11111111..................................................1111111111$$$$$$$$1111111",
"111111111%%%%%%%%11111111..................................................1111111111$$$$$$$$1111111",
"111111111%%%%%%%%11111111..................................................1111111111$$$$$$$$1111111",
"111111111%%%%%%%%11111111..................................................1111111111$$$$$$$$1111111",
"111111111%%%%%%%%11111111..................................................1111111111$$$$$$$$1111111",
"11111111111111111<1111111..................................................111111111<111111111111111",
"111111111111111111+++++++1111111111111111111111111111111111111111111,,,,,,,+++++++++1111111111111111",
"111111111111111111+++++++1111111111111111111111111111111111111111111,,,,,,,+++++++++1111111111111111",
"111111111111111111+++++++1111111111111111111111111111111111111111111,,,,,,,+++++++++1111111111111111",
"111111111111111111+++++++1111111111111111111111111111111111111111111,,,,,,,+++++++++1111111111111111",
"111111111111111111+++++++1111111111111111111111111111111111111111111,,,,,,,+++++++++1111111111111111",
"111111111111111111+++++++1111111111111111111111111111111111111111111,,,,,,,+++++++++1111111111111111",
"111111111111111111+++++++1111111111111111111111111111111111111111111,,,,,,,+++++++++1111111111111111",
"111111111111111111+++++++1111111111111111111111111111111111111111111,,,,,,,+++++++++1111111111111111",
"111111111111111111+++++++1111111111111111111111111111111111111111111,,,,,,,+++++++++1111111111111111",
"111111111111111111+++++++1111111111111111111111111111111111111111111,,,,,,,+++++++++1111111111111111",
"111111111111111111+++++++1111111111111111111111111111111111111111111,,,,,,,+++++++++1111111111111111",
"111111111111111111+++++++1111111111111111111111111111111111111111111,,,,,,,+++++++++1111111111111111",
"111111111111111111+++++++1111111111111111111111111111111111111111111,,,,,,,+++++++++1111111111111111",
"::::::::1111111111+++++++1111111111111111111111111111111111111111111,,,,,,,+++++++++1111111111------",
"::::::::1111111111+++++++1111111111111111111111111111111111111111111,,,,,,,+++++++++1111111111------",
"::::::::1111111111+++++++1111111111111111111111111111111111111111111,,,,,,,+++++++++1111111111------",
"::::::::1111111111+++++++1111111111111111111111111111111111111111111,,,,,,,+++++++++1111111111------",
"::::::::1111111111+++++++1111111111111111111111111111111111111111111,,,,,,,+++++++++1111111111------",
"::::::::1111111111+++++++1111111111111111111111111111111111111111111,,,,,,,+++++++++1111111111------",
"11111111<111111111+++++++1111111111111111111111111111111111111111111,,,,,,,+++++++++111111111>111111",
"111111111+++++++++11111111111111111111111111111111111111111111111111,,,,,,,,,,,,,,,,OOOOOOOOO1111111",
"111111111+++++++++11111111111111111111111111111111111111111111111111,,,,,,,,,,,,,,,,OOOOOOOOO1111111",
"111111111+++++++++11111111111111111111111111111111111111111111111111,,,,,,,,,,,,,,,,OOOOOOOOO1111111",
"111111111+++++++++11111111111111111111111111111111111111111111111111,,,,,,,,,,,,,,,,OOOOOOOOO1111111",
"111111111+++++++++11111111111111111111111111111111111111111111111111,,,,,,,,,,,,,,,,OOOOOOOOO1111111",
"111111111+++++++++11111111111111111111111111111111111111111111111111,,,,,,,,,,,,,,,,OOOOOOOOO1111111",
"111111111+++++++++11111111111111111111111111111111111111111111111111,,,,,,,,,,,,,,,,OOOOOOOOO1111111",
"111111111+++++++++11111111111111111111111111111111111111111111111111,,,,,,,,,,,,,,,,OOOOOOOOO1111111",
"111111111+++++++++11111111111111111111111111111111111111111111111111,,,,,,,,,,,,,,,,OOOOOOOOO1111111",
"111111111+++++++++11111111111111111111111111111111111111111111111111,,,,,,,,,,,,,,,,OOOOOOOOO1111111",
"111111111+++++++++11111111111111111111111111111111111111111111111111,,,,,,,,,,,,,,,,OOOOOOOOO1111111",
"111111111+++++++++11111111111111111111111111111111111111111111111111,,,,,,,,,,,,,,,,OOOOOOOOO1111111",
"111111111+++++++++11111111111111111111111111111111111111111111111111,,,,,,,,,,,,,,,,OOOOOOOOO1111111",
"111111111OOOOOOOOO11111111111111111111111111111111111111111111111111,,,,,,,,,,,,,,,,ooooooooo1111111",
"111111111OOOOOOOOO11111111111111111111111111111111111111111111111111,,,,,,,,,,,,,,,,ooooooooo1111111",
"111111111OOOOOOOOO11111111111111111111111111111111111111111111111111,,,,,,,,,,,,,,,,ooooooooo1111111",
"111111111OOOOOOOOO11111111111111111111111111111111111111111111111111,,,,,,,,,,,,,,,,ooooooooo1111111",
"111111111OOOOOOOOO11111111111111111111111111111111111111111111111111,,,,,,,,,,,,,,,,ooooooooo1111111",
"111111111OOOOOOOOO11111111111111111111111111111111111111111111111111,,,,,,,,,,,,,,,,ooooooooo1111111",
"111111111OOOOOOOOO11111111111111111111111111111111111111111111111111,,,,,,,,,,,,,,,,ooooooooo1111111",
"111111111OOOOOOOOO11111111111111111111111111111111111111111111111111,,,,,,,,,,,,,,,,ooooooooo1111111",
"111111111OOOOOOOOO11111111111111111111111111111111111111111111111111,,,,,,,,,,,,,,,,ooooooooo1111111",
"111111111OOOOOOOOO11111111111111111111111111111111111111111111111111,,,,,,,,,,,,,,,,ooooooooo1111111",
"111111111OOOOOOOOO11111111111111111111111111111111111111111111111111,,,,,,,,,,,,,,,,ooooooooo1111111",
"111111111OOOOOOOOO11111111111111111111111111111111111111111111111111,,,,,,,,,,,,,,,,ooooooooo1111111",
"111111111OOOOOOOOO11111111111111111111111111111111111111111111111111,,,,,,,,,,,,,,,,ooooooooo1111111",
"111111111OOOOOOOOO11111111111111111111111111111111111111111111111111,,,,,,,,,,,,,,,,ooooooooo1111111",
"111111111OOOOOOOOO11111111111111111111111111111111111111111,,,,,,,,,,,,,,,,,,,,,,,,,ooooooooo1111111",
"111111111OOOOOOOOO11111111111111111111111111111111111111111,,,,,,,,,,,,,,,,,,,,,,,,,ooooooooo1111111",
"111111111OOOOOOOOO11111111111111111111111111111111111111111,,,,,,,,,,,,,,,,,,,,,,,,,ooooooooo1111111",
"111111111OOOOOOOOO11111111111111111111111111111111111111111,,,,,,,,,,,,,,,,,,,,,,,,,ooooooooo1111111",
"111111111OOOOOOOOO11111111111111111111111111111111111111111,,,,,,,,,,,,,,,,,,,,,,,,,ooooooooo1111111",
"111111111OOOOOOOOO11111111111111111111111111111111111111111,,,,,,,,,,,,,,,,,,,,,,,,,ooooooooo1111111",
"111111111ooooooooo1111111111111111,,,,,,,,,,,,,,,,,,,,,,,,,,,,,,,,,,,,,,,,,,,,,,,,,,ooooooooo1111111",
"111111111ooooooooo1111111111111111,,,,,,,,,,,,,,,,,,,,,,,,,,,,,,,,,,,,,,,,,,,,,,,,,,ooooooooo1111111",
"111111111ooooooooo1111111111111111,,,,,,,,,,,,,,,,,,,,,,,,,,,,,,,,,,,,,,,,,,,,,,,,,,ooooooooo1111111",
"111111111ooooooooo1111111111111111,,,,,,,,,,,,,,,,,,,,,,,,,,,,,,,,,,,,,,,,,,,,,,,,,,ooooooooo1111111",
"111111111ooooooooo1111111111111111,,,,,,,,,,,,,,,,,,,,,,,,,,,,,,,,,,,,,,,,,,,,,,,,,,ooooooooo1111111",
"111111111ooooooooo1111111111111111,,,,,,,,,,,,,,,,,,,,,,,,,,,,,,,,,,,,,,,,,,,,,,,,,,ooooooooo1111111",
"111111111ooooooooo1111111111111111,,,,,,,,,,,,,,,,,,,,,,,,,,,,,,,,,,,,,,,,,,,,,,,,,,ooooooooo1111111",
"11111111;111111111oooooooooooooooooooooooooooooooooooooooooooooooooooooooooooooooooo111111111;111111",
"&&&&&&&&1111111111oooooooooooooooooooooooooooooooooooooooooooooooooooooooooooooooooo1111111111&&&&&&",
"&&&&&&&&1111111111oooooooooooooooooooooooooooooooooooooooooooooooooooooooooooooooooo1111111111&&&&&&",
"&&&&&&&&1111111111oooooooooooooooooooooooooooooooooooooooooooooooooooooooooooooooooo1111111111&&&&&&",
"&&&&&&&&1111111111oooooooooooooooooooooooooooooooooooooooooooooooooooooooooooooooooo1111111111&&&&&&",
"&&&&&&&&1111111111oooooooooooooooooooooooooooooooooooooooooooooooooooooooooooooooooo1111111111&&&&&&",
"&&&&&&&&1111111111oooooooooooooooooooooooooooooooooooooooooooooooooooooooooooooooooo1111111111&&&&&&",
"11111111111111111;111111111111111111111111111111111111111111111111111111111111111111;111111111111111",
"111111111&&&&&&&&11111111111111111111111111111111111111111111111111111111111111111111&&&&&&&&1111111",
"111111111&&&&&&&&11111111111111111111111111111111111111111111111111111111111111111111&&&&&&&&1111111",
"111111111&&&&&&&&11111111111111111111111111111111111111111111111111111111111111111111&&&&&&&&1111111",
"111111111&&&&&&&&11111111111111111111111111111111111111111111111111111111111111111111&&&&&&&&1111111",
"111111111&&&&&&&&11111111111111111111111111111111111111111111111111111111111111111111&&&&&&&&1111111"
};
