/* XPM */
static char *_d87d118ebe0466287985088cc68a67d3GUVSZBxP15NMm0Z[] = {
/* columns rows colors chars-per-pixel */
"100 100 11 1 ",
"  c black",
". c #AA7959",
"X c #B0815D",
"o c #B2845F",
"O c #B48660",
"+ c #B78962",
"@ c #B98C64",
"# c #BB8F65",
"$ c #BD9167",
"% c #BE9368",
"& c #C49A6C",
/* pixels */
"                                                        &&&&&&&&&&&&&&&&&&&                         ",
"                                                        &&&&&&&&&&&&&&&&&&&                         ",
"                                                        &&&&&&&&&&&&&&&&&&&                         ",
"                                                        &&&&&&&&&&&&&&&&&&&                         ",
"                                                        &&&&&&&&&&&&&&&&&&&                         ",
"                                                        &&&&&&&&&&&&&&&&&&&                         ",
"                                                        &&&&&&&&&&&&&&&&&&&                         ",
"                                                        &&&&&&&&&&&&&&&&&&&                         ",
"                       &&&&&&&&&&&&&&&&&&               &&&&&&&&&&&&&&&####                         ",
"                       &&&&&&&&&&&&&&&&&&               &&&&&&&&&&&&&&&####                         ",
"                       &&&&&&&&&&&&&&&&&&               &&&&&&&&&&&&&&&####                         ",
"                       &&&&&&&&&&&&&&&&&&           &&&&&&&&&&&&&&&....++++                         ",
"                       &&&&&&&&&&&&&&&&&&           &&&&&&&&&&&&&&&....++++                         ",
"                       &&&&&&&&&&&&&&&&&&           &&&&&&&&&&&&&&&....++++                         ",
"                       &&&&&&&&&&&&&&&&&&           &&&&&&&&&&&&&&&....++++                         ",
"                       ###&&&&&&&&&&&&&&&&&&&       &&&&&&&&&&&&&&&$$$$....                         ",
"                       ###&&&&&&&&&&&&&&&&&&&       &&&&&&&&&&&&&&&$$$$....                         ",
"                       ###&&&&&&&&&&&&&&&&&&&       &&&&&&&&&&&&&&&$$$$....                         ",
"                       +++....&&&&&&&&&&&&&&&       &&&&&&&&&&&&&&&####                             ",
"                       +++....&&&&&&&&&&&&&&&       &&&&&&&&&&&&&&&####                             ",
"                       +++....&&&&&&&&&&&&&&&       &&&&&&&&&&&&&&&####                             ",
"                       +++....&&&&&&&&&&&&&&&       &&&&&&&&&&&&&&&####                             ",
"                       ...++++&&&&&&&&&&&&&&&&&&&&&&&&&&&&&&&&&....++++                             ",
"                       ...++++&&&&&&&&&&&&&&&&&&&&&&&&&&&&&&&&&....++++                             ",
"                       ...++++&&&&&&&&&&&&&&&&&&&&&&&&&&&&&&&&&....++++                             ",
"                          ++++....&&&&&&&&&&&&&&&&&&&&&&&&&&&&&$$$$....       &&&&&&&&&&&&&&&&&&&   ",
"                          ++++....&&&&&&&&&&&&&&&&&&&&&&&&&&&&&$$$$....       &&&&&&&&&&&&&&&&&&&   ",
"                          ++++....&&&&&&&&&&&&&&&&&&&&&&&&&&&&&$$$$....       &&&&&&&&&&&&&&&&&&&   ",
"                          ++++....&&&&&&&&&&&&&&&&&&&&&&&&&&&&&$$$$....       &&&&&&&&&&&&&&&&&&&   ",
"&&&&&&&&&&&&&&&&&&&       ....++++&&&&&&&&&&&&&&&$$$&&&&&&&&&&&####    &&&&&&&&&&&&&&&&&&&&&&&&&&   ",
"&&&&&&&&&&&&&&&&&&&       ....++++&&&&&&&&&&&&&&&$$$&&&&&&&&&&&####    &&&&&&&&&&&&&&&&&&&&&&&&&&   ",
"&&&&&&&&&&&&&&&&&&&       ....++++&&&&&&&&&&&&&&&$$$&&&&&&&&&&&####    &&&&&&&&&&&&&&&&&&&&&&&&&&   ",
"&&&&&&&&&&&&&&&&&&&       ....++++&&&&&&&&&&&&&&&$$$&&&&&&&&&&&####    &&&&&&&&&&&&&&&&&&&&&&&&&&   ",
"&&&&&&&&&&&&&&&&&&&&&&&&&&&&&&++++....&&&&&&&&&&&$$$...........####&&&&&&&&&&&&&&&&&&&&&&&&&&####   ",
"&&&&&&&&&&&&&&&&&&&&&&&&&&&&&&++++....&&&&&&&&&&&$$$...........####&&&&&&&&&&&&&&&&&&&&&&&&&&####   ",
"&&&&&&&&&&&&&&&&&&&&&&&&&&&&&&++++....&&&&&&&&&&&$$$...........####&&&&&&&&&&&&&&&&&&&&&&&&&&####   ",
"####&&&&&&&&&&&&&&&&&&&&&&&&&&########&&&&&&&&&&&+++....XXXX+++%%%%&&&&&&&&&&&&&&&&&&&.......++++   ",
"####&&&&&&&&&&&&&&&&&&&&&&&&&&########&&&&&&&&&&&+++....XXXX+++%%%%&&&&&&&&&&&&&&&&&&&.......++++   ",
"####&&&&&&&&&&&&&&&&&&&&&&&&&&########&&&&&&&&&&&+++....XXXX+++%%%%&&&&&&&&&&&&&&&&&&&.......++++   ",
"####&&&&&&&&&&&&&&&&&&&&&&&&&&####@@@#&&&&&&&&&&&+++....XXXX+++%%%%&&&&&&&&&&&&&&&&&&&.......++++   ",
"++++...........&&&&&&&&&&&&&&&&&&&$$$$...........+++    &&&&&&&&&&&&&&&&&&&&&&........XXX........   ",
"++++...........&&&&&&&&&&&&&&&&&&&$$$$...........+++    &&&&&&&&&&&&&&&&&&&&&&........XXX........   ",
"++++...........&&&&&&&&&&&&&&&&&&&$$$$...........+++    &&&&&&&&&&&&&&&&&&&&&&........XXX........   ",
"............XXX........&&&&&&&&&&&++++..............    ####&&&&&&&&&&&.......XXXX.......           ",
"............XXX........&&&&&&&&&&&++++..............    ####&&&&&&&&&&&.......XXXX.......           ",
"............XXX........&&&&&&&&&&&++++..............    ####&&&&&&&&&&&.......XXXX.......           ",
"............XXX........&&&&&&&&&&&++++..............    ####&&&&&&&&&&&.......XXXX.......           ",
"            .......XXXX...........++++                  ++++...........XXXX.......                  ",
"            .......XXXX...........++++                  ++++...........XXXX.......                  ",
"            .......XXXX...........++++                  ++++...........XXXX.......                  ",
"                   .......XXXX++++$$$$&&&&&&&           .......XXXX++++$$$$&&&&&&&                  ",
"                   .......XXXX++++$$$$&&&&&&&           .......XXXX++++$$$$&&&&&&&                  ",
"                   .......XXXX++++$$$$&&&&&&&           .......XXXX++++$$$$&&&&&&&                  ",
"                   .......XXXX++++$$$$&&&&&&&           .......XXXX++++$$$$&&&&&&&                  ",
"                   &&&&&&&&&&&&&&&&&&&&&&&&&&                  &&&&&&&&&&&&&&&&&&&&&&&&&&           ",
"                   &&&&&&&&&&&&&&&&&&&&&&&&&&                  &&&&&&&&&&&&&&&&&&&&&&&&&&           ",
"                   &&&&&&&&&&&&&&&&&&&&&&&&&&                  &&&&&&&&&&&&&&&&&&&&&&&&&&           ",
"                   &&&&&&&&&&&&&&&&&&&&&&&&&&                  &&&&&&&&&&&&&&&&&&&&&&&&&&           ",
"            &&&&&&&&&&&&&&&&&&&&&&&&&&&&&####    &&&&&&&&&&&&&&$$$$&&&&&&&&&&&&&&&&&&&&&&&&&&&&&&&&&",
"            &&&&&&&&&&&&&&&&&&&&&&&&&&&&&####    &&&&&&&&&&&&&&$$$$&&&&&&&&&&&&&&&&&&&&&&&&&&&&&&&&&",
"            &&&&&&&&&&&&&&&&&&&&&&&&&&&&&####    &&&&&&&&&&&&&&$$$$&&&&&&&&&&&&&&&&&&&&&&&&&&&&&&&&&",
"    &&&&&&&&&&&&&&&&&&&&&&&&&&&&&&.......++++    &&&&&&&&&&&&&&$$$$........&&&&&&&&&&&&&&&&&&&&&&&&&",
"    &&&&&&&&&&&&&&&&&&&&&&&&&&&&&&.......++++    &&&&&&&&&&&&&&$$$$........&&&&&&&&&&&&&&&&&&&&&&&&&",
"    &&&&&&&&&&&&&&&&&&&&&&&&&&&&&&.......++++    &&&&&&&&&&&&&&$$$$........&&&&&&&&&&&&&&&&&&&&&&&&&",
"    &&&&&&&&&&&&&&&&&&&&&&&&&&&&&&.......++++    &&&&&&&&&&&&&&$$$$........&&&&&&&&&&&&&&&&&&&&&&&&&",
"    &&&&&&&&&&&&&&&&&&&&&&........OOOO+++$$$$&&&&$$$&&&&&&&&&&&%%%%ooooXXXX...........&&&&&&&&&&&###",
"    &&&&&&&&&&&&&&&&&&&&&&........OOOO+++$$$$&&&&$$$&&&&&&&&&&&%%%%ooooXXXX...........&&&&&&&&&&&###",
"    &&&&&&&&&&&&&&&&&&&&&&........OOOO+++$$$$&&&&$$$&&&&&&&&&&&%%%%ooooXXXX...........&&&&&&&&&&&###",
"    ####&&&&&&&&&&&.......XXXX....####&&&&&&&&&&&$$$....&&&&&&&&&&&&&&&...........XXXX...........+++",
"    ####&&&&&&&&&&&.......XXXX....####&&&&&&&&&&&$$$....&&&&&&&&&&&&&&&...........XXXX...........+++",
"    ####&&&&&&&&&&&.......XXXX....####&&&&&&&&&&&$$$....&&&&&&&&&&&&&&&...........XXXX...........+++",
"    ####&&&&&&&&&&&.......XXXX....####&&&&&&&&&&&$$$....&&&&&&&&&&&&&&&...........XXXX...........+++",
"    ++++...........XXXX.......&&&&&&&&&&&&&&&&&&&+++++++&&&&&&&&&&&&&&&&&&&       ..................",
"    ++++...........XXXX.......&&&&&&&&&&&&&&&&&&&+++++++&&&&&&&&&&&&&&&&&&&       ..................",
"    ++++...........XXXX.......&&&&&&&&&&&&&&&&&&&+++++++&&&&&&&&&&&&&&&&&&&       ..................",
"    ...................       &&&&&&&&&&&&&&&....+++++++....&&&&&&&&&&&&&&&                         ",
"    ...................       &&&&&&&&&&&&&&&....+++++++....&&&&&&&&&&&&&&&                         ",
"    ...................       &&&&&&&&&&&&&&&....+++++++....&&&&&&&&&&&&&&&                         ",
"    ...................       &&&&&&&&&&&&&&&....+++++++....&&&&&&&&&&&&&&&                         ",
"                              &&&&&&&&&&&&&&&++++.......++++&&&&&&&&&&&&&&&&&&                      ",
"                              &&&&&&&&&&&&&&&++++.......++++&&&&&&&&&&&&&&&&&&                      ",
"                              &&&&&&&&&&&&&&&++++.......++++&&&&&&&&&&&&&&&&&&                      ",
"                              &&&&&&&&&&&&&&&++++.......++++&&&&&&&&&&&&&&&&&&                      ",
"                          &&&&&&&&&&&&&&&....++++       ++++...&&&&&&&&&&&&&&&                      ",
"                          &&&&&&&&&&&&&&&....++++       ++++...&&&&&&&&&&&&&&&                      ",
"                          &&&&&&&&&&&&&&&....++++       ++++...&&&&&&&&&&&&&&&                      ",
"                          &&&&&&&&&&&&&&&$$$$....       ....+++&&&&&&&&&&&&###                      ",
"                          &&&&&&&&&&&&&&&$$$$....       ....+++&&&&&&&&&&&&###                      ",
"                          &&&&&&&&&&&&&&&$$$$....       ....+++&&&&&&&&&&&&###                      ",
"                          &&&&&&&&&&&&&&&$$$$....       ....+++&&&&&&&&&&&&###                      ",
"                          ####&&&&&&&&&&&####               +++............+++                      ",
"                          ####&&&&&&&&&&&####               +++............+++                      ",
"                          ####&&&&&&&&&&&####               +++............+++                      ",
"                          ++++...........++++               ..................                      ",
"                          ++++...........++++               ..................                      ",
"                          ++++...........++++               ..................                      ",
"                          ++++...........++++               ..................                      ",
"                          ...................                                                       ",
"                          ...................                                                       ",
"                          ...................                                                       "
};
