/* XPM */
static char *_995a785bf144d64aebc0914f82977f0reGenf94ZSCAta40[] = {
/* columns rows colors chars-per-pixel */
"100 100 2 1 ",
"  c #C0D470",
". c #D2E077",
/* pixels */
"                                                                                                    ",
"                                                                                                    ",
"                                                                                                    ",
"                                                                                                    ",
"                                                                                                    ",
"                                                                                                    ",
"                                                                                                    ",
"                                                                                                    ",
"                                                                                                    ",
"                                                                                                    ",
"                                                                                                    ",
"                                                                                                    ",
"                                                                                                    ",
"                                                                                                    ",
"                                                                                                    ",
"                                                                                                    ",
"                                                                                                    ",
"                                                                                                    ",
"                                                                                                    ",
"                                      ...............................                               ",
"                                      ...............................                               ",
"                                      ...............................                               ",
"                                      ...............................                               ",
"                                      ...............................                               ",
"                                      ...............................                               ",
"                                ..................................................                  ",
"                                ..................................................                  ",
"                                ..................................................                  ",
"                                ..................................................                  ",
"                                ..................................................                  ",
"                                ..................................................                  ",
"                                ..................................................                  ",
"                                ........................................................            ",
"                                ........................................................            ",
"                                ........................................................            ",
"                                ........................................................            ",
"                                ........................................................            ",
"                                ........................................................            ",
"                                ........................................................            ",
"                                ........................................................            ",
"                                ........................................................            ",
"                                ........................................................            ",
"                                ........................................................            ",
"                                ........................................................            ",
"                                      ............................................                  ",
"                                      ............................................                  ",
"                                      ............................................                  ",
"                                      ............................................                  ",
"                                      ............................................                  ",
"                                      ............................................                  ",
"                                                                                                    ",
"                                                                                                    ",
"                                                                                                    ",
"                                                                                                    ",
"                                                                                                    ",
"                                                                                                    ",
"                                                                                                    ",
"                   .........................                                                        ",
"                   .........................                                                        ",
"                   .........................                                                        ",
"                   .........................                                                        ",
"                   .........................                                                        ",
"                   .........................                                                        ",
"             .....................................                                                  ",
"             .....................................                                                  ",
"             .....................................                                                  ",
"             .....................................                                                  ",
"             .....................................                                                  ",
"             .....................................                                                  ",
"             .....................................                                                  ",
"             .....................................                                                  ",
"             .....................................                                                  ",
"             .....................................                                                  ",
"             .....................................                                                  ",
"             .....................................                                                  ",
"                   .........................                                                        ",
"                   .........................                                                        ",
"                   .........................                                                        ",
"                   .........................                                                        ",
"                   .........................                                                        ",
"                   .........................                                                        ",
"                   .........................                                                        ",
"                                                                                                    ",
"                                                                                                    ",
"                                                                                                    ",
"                                                                                                    ",
"                                                                                                    ",
"                                                                                                    ",
"                                                                                                    ",
"                                                                                                    ",
"                                                                                                    ",
"                                                                                                    ",
"                                                                                                    ",
"                                                                                                    ",
"                                                                                                    ",
"                                                                                                    ",
"                                                                                                    ",
"                                                                                                    ",
"                                                                                                    ",
"                                                                                                    "
};
