/* XPM */
static char *_5e6d0c123d24960b075224c6e815728lu7zSzR19QUgwAre[] = {
/* columns rows colors chars-per-pixel */
"100 100 15 1 ",
"  c black",
". c #545959",
"X c #6B7470",
"o c #727A75",
"O c #747C76",
"+ c #767F79",
"@ c #77817A",
"# c #79837C",
"$ c #7B857E",
"% c #808780",
"& c #808982",
"* c #818B83",
"= c #879088",
"- c #9DA89A",
"; c #C1C8B9",
/* pixels */
"                         XXXXXXX======XXXXXXXXXXXXXXXXXXX&&&&&&XXXXXXXXXXXX                         ",
"                         XXXXXXX======XXXXXXXXXXXXXXXXXXX&&&&&&XXXXXXXXXXXX                         ",
"                         XXXXXXX======XXXXXXXXXXXXXXXXXXX&&&&&&XXXXXXXXXXXX                         ",
"                         XXXXXXX======XXXXXXXXXXXXXXXXXXX&&&&&&XXXXXXXXXXXX                         ",
"                         XXXXXXX======XXXXXXXXXXXXXXXXXXX&&&&&&XXXXXXXXXXXX                         ",
"                         XXXXXXX======XXXXXXXXXXXXXXXXXXX&&&&&&XXXXXXXXXXXX                         ",
"                         XXXXXXX======XXXXXXXXXXXXXXXXXXX&&&&&&XXXXXXXXXXXX                         ",
"                         XXXXXXX======XXXXXXXXXXXXXXXXXXX&&&&&&XXXXXXXXXXXX                         ",
"                         XXXXXXX======XXXXXXXXXXXXXXXXXXX&&&&&&XXXXXXXXXXXX                         ",
"                         XXXXXXX======XXXXXXXXXXXXXXXXXXX&&&&&&XXXXXXXXXXXX                         ",
"                   XXXXXX=======XXXXXX;;;;;;;;;;;;;;;;;;;XXXXXXXXXXXX&&&&&&XXXXXXXXXXXXX            ",
"                   XXXXXX=======XXXXXX;;;;;;;;;;;;;;;;;;;XXXXXXXXXXXX&&&&&&XXXXXXXXXXXXX            ",
"                   XXXXXX=======XXXXXX;;;;;;;;;;;;;;;;;;;XXXXXXXXXXXX&&&&&&XXXXXXXXXXXXX            ",
"                   XXXXXX=======XXXXXX;;;;;;;;;;;;;;;;;;;XXXXXXXXXXXX&&&&&&XXXXXXXXXXXXX            ",
"                   XXXXXX=======XXXXXX;;;;;;;;;;;;;;;;;;;XXXXXXXXXXXX&&&&&&XXXXXXXXXXXXX            ",
"                   XXXXXX=======XXXXXX;;;;;;;;;;;;;;;;;;;XXXXXXXXXXXX&&&&&&XXXXXXXXXXXXX            ",
"                   XXXXXX=======XXXXXX;;;;;;;;;;;;;;;;;;;XXXXXXXXXXXX&&&&&&XXXXXXXXXXXXX            ",
"                   XXXXXX=======XXXXXX;;;;;;;;;;;;;;;;;;;XXXXXXXXXXXX&&&&&&XXXXXXXXXXXXX            ",
"                   XXXXXX=======XXXXXX;;;;;;;;;;;;;;;;;;;XXXXXXXXXXXX&&&&&&XXXXXXXXXXXXX            ",
"                   XXXXXXXXXXXXX;;;;;;;;;;;;;;;;;;;;;;;;;;;;;;;;;;;;;XXXXXXXXXXXXX======XXXXXX      ",
"                   XXXXXXXXXXXXX;;;;;;;;;;;;;;;;;;;;;;;;;;;;;;;;;;;;;XXXXXXXXXXXXX======XXXXXX      ",
"                   XXXXXXXXXXXXX;;;;;;;;;;;;;;;;;;;;;;;;;;;;;;;;;;;;;XXXXXXXXXXXXX======XXXXXX      ",
"                   XXXXXXXXXXXXX;;;;;;;;;;;;;;;;;;;;;;;;;;;;;;;;;;;;;XXXXXXXXXXXXX======XXXXXX      ",
"                   XXXXXXXXXXXXX;;;;;;;;;;;;;;;;;;;;;;;;;;;;;;;;;;;;;XXXXXXXXXXXXX======XXXXXX      ",
"                   XXXXXXXXXXXXX;;;;;;;;;;;;;;;;;;;;;;;;;;;;;;;;;;;;;XXXXXXXXXXXXX======XXXXXX      ",
"                   XXXXXXXXXXXXX;;;;;;;;;;;;;;;;;;;;;;;;;;;;;;;;;;;;;XXXXXXXXXXXXX======XXXXXX      ",
"                   XXXXXXXXXXXXX;;;;;;;;;;;;;;;;;;;;;;;;;;;;;;;;;;;;;XXXXXXXXXXXXX======XXXXXX      ",
"                   XXXXXXXXXXXXX;;;;;;;;;;;;;;;;;;;;;;;;;;;;;;;;;;;;;XXXXXXXXXXXXX======XXXXXX      ",
"             XXXXXX@@@@@@XXXXXXX*&&&&&;;;;;;;;;;;;;;;;;;;------------------;;;;;;;XXXXXX%%%%%%......",
"             XXXXXX@@@@@@XXXXXXX*&&&&&;;;;;;;;;;;;;;;;;;;------------------;;;;;;;XXXXXX%%%%%%......",
"             XXXXXX@@@@@@XXXXXXX**&&&&;;;;;;;;;;;;;;;;;;;------------------;;;;;;;XXXXXX%%%%%%......",
"             XXXXXX@@@@@@XXXXXXX**&&&&;;;;;;;;;;;;;;;;;;;------------------;;;;;;;XXXXXX%%%%%%......",
"             XXXXXX@@@@@@XXXXXXX**&&&&;;;;;;;;;;;;;;;;;;;------------------;;;;;;;XXXXXX%%%%%%......",
"             XXXXXX@@@@@@XXXXXXX**&&&&;;;;;;;;;;;;;;;;;;;------------------;;;;;;;XXXXXX%%%%%%......",
"             XXXXXX@@@@@@XXXXXXX**&&**;;;;;;;;;;;;;;;;;;;------------------;;;;;;;XXXXXX%%%%%%......",
"             XXXXXX@@@@@@XXXXXXX**&&**;;;;;;;;;;;;;;;;;;;------------------;;;;;;;XXXXXX%%%%%%......",
"             XXXXXX@@@@@@XXXXXXX*****&;;;;;;;;;;;;;;;;;;;------------------;;;;;;;XXXXXX%%%%%%......",
"       XXXXXX$$$$$$XXXXXX-------****&&&&&&&&-------------------------;;;;;;;;;;;;;;;;;;;............",
"       XXXXXX$$$$$$XXXXXX-------*&**&&&&&&&&-------------------------;;;;;;;;;;;;;;;;;;;............",
"       XXXXXX$$$$$$XXXXXX-------&&***&&&&&&&-------------------------;;;;;;;;;;;;;;;;;;;............",
"       XXXXXX$$$$$$XXXXXX-------&&&&&&&*****-------------------------;;;;;;;;;;;;;;;;;;;............",
"       XXXXXX$$$$$$XXXXXX-------&&&&&*&*****-------------------------;;;;;;;;;;;;;;;;;;;............",
"       XXXXXX$$$$$$XXXXXX-------**&&&&&&&&**-------------------------;;;;;;;;;;;;;;;;;;;............",
"       XXXXXX$$$$$$XXXXXX-------****&&&*&&**-------------------------;;;;;;;;;;;;;;;;;;;............",
"       XXXXXX$$$$$$XXXXXX-------**&&&&**&&**-------------------------;;;;;;;;;;;;;;;;;;;............",
"       XXXXXX$$$$$$XXXXXX-------**&&&&**&&**-------------------------;;;;;;;;;;;;;;;;;;;............",
".......OOOOOOXXXXXX-------------------&*&&&*-------------;;;;;;;;;;;;;;;;;;;;;;;;;;;;;;;............",
".......OOOOOOXXXXXX-------------------&*&&**-------------;;;;;;;;;;;;;;;;;;;;;;;;;;;;;;;............",
".......OOOOOOXXXXXX-------------------&&&&&&-------------;;;;;;;;;;;;;;;;;;;;;;;;;;;;;;;............",
".......OOOOOOXXXXXX-------------------&&&&&&-------------;;;;;;;;;;;;;;;;;;;;;;;;;;;;;;;............",
".......OOOOOOXXXXXX-------------------&&&&&&-------------;;;;;;;;;;;;;;;;;;;;;;;;;;;;;;;............",
".......OOOOOOXXXXXX-------------------&&*&&&-------------;;;;;;;;;;;;;;;;;;;;;;;;;;;;;;;............",
".......OOOOOOXXXXXX-------------------&&****-------------;;;;;;;;;;;;;;;;;;;;;;;;;;;;;;;............",
".......OOOOOOXXXXXX-------------------&&****-------------;;;;;;;;;;;;;;;;;;;;;;;;;;;;;;;............",
".......OOOOOOXXXXXX-------------------&&&&**-------------;;;;;;;;;;;;;;;;;;;;;;;;;;;;;;;............",
".............-------------------------------;;;;;;;;;;;;;;;;;;;;;;;;;;;;;;;;;;;;;;&&&&&&............",
".............-------------------------------;;;;;;;;;;;;;;;;;;;;;;;;;;;;;;;;;;;;;;&&&&&&............",
".............-------------------------------;;;;;;;;;;;;;;;;;;;;;;;;;;;;;;;;;;;;;;&&&&**............",
".............-------------------------------;;;;;;;;;;;;;;;;;;;;;;;;;;;;;;;;;;;;;;&&****............",
".............-------------------------------;;;;;;;;;;;;;;;;;;;;;;;;;;;;;;;;;;;;;;&&****............",
".............-------------------------------;;;;;;;;;;;;;;;;;;;;;;;;;;;;;;;;;;;;;;***&&&............",
".............-------------------------------;;;;;;;;;;;;;;;;;;;;;;;;;;;;;;;;;;;;;;****&&............",
".............-------------------------------;;;;;;;;;;;;;;;;;;;;;;;;;;;;;;;;;;;;;;**&&&&............",
".............-------------------------------;;;;;;;;;;;;;;;;;;;;;;;;;;;;;;;;;;;;;;**&&&&............",
".............&&&&&*-------------XXXXXX;;;;;;;;;;;;;;;;;;;;;;;;;;;;;;;;;;;;;&&&*********&............",
".............&&&*&*-------------XXXXXX;;;;;;;;;;;;;;;;;;;;;;;;;;;;;;;;;;;;;&&&*********&............",
".............&&&***-------------XXXXXX;;;;;;;;;;;;;;;;;;;;;;;;;;;;;;;;;;;;;&&&&*&&&&****............",
".............&&&***-------------XXXXXX;;;;;;;;;;;;;;;;;;;;;;;;;;;;;;;;;;;;;&&&&&&&&&****............",
".............&&&&&*-------------XXXXXX;;;;;;;;;;;;;;;;;;;;;;;;;;;;;;;;;;;;;&****&&****&&............",
".............&&&&&*-------------XXXXXX;;;;;;;;;;;;;;;;;;;;;;;;;;;;;;;;;;;;;&****&&**&*&&............",
".............&*&&&&-------------XXXXXX;;;;;;;;;;;;;;;;;;;;;;;;;;;;;;;;;;;;;&****&***&&&&............",
".............&&*&&&-------------XXXXXX;;;;;;;;;;;;;;;;;;;;;;;;;;;;;;;;;;;;;&**&&****&&&&............",
".............*****&-------------XXXXXX;;;;;;;;;;;;;;;;;;;;;;;;;;;;;;;;;;;;;&&&&&*&&&****............",
".......oooooo******&&&**&XXXXXXX&&&&&&;;;;;;;;;;;;;;;;;;;;;;;;;&&&&&**&&&&&&&&&&*&&&****............",
".......oooooo*&***&&&&**&XXXXXXX&&****;;;;;;;;;;;;;;;;;;;;;;;;;&&&&&******&&&&****&&*&**............",
".......oooooo&&&**&&&&**&XXXXXXX&*****;;;;;;;;;;;;;;;;;;;;;;;;;&&&&&****&*&&&*****&&&&**............",
".......oooooo&&&*&&&****&XXXXXXX****&&;;;;;;;;;;;;;;;;;;;;;;;;;&&****&&***&&&&******&&&*............",
".......oooooo&&&**&&&&&*&XXXXXXX****&&;;;;;;;;;;;;;;;;;;;;;;;;;&&&**&*&&**&&&&******&&&&............",
".......oooooo&&&&&&&&&&&&XXXXXXX&*&&&&;;;;;;;;;;;;;;;;;;;;;;;;;&&***&&&&***&&***&&&&&&&&............",
".......oooooo&&&&&&&&&&&&XXXXXXX&&&&&&;;;;;;;;;;;;;;;;;;;;;;;;;&****&&&&***&&&**&&&&&&&&............",
".......oooooo*******&&&&&XXXXXXX&&&***;;;;;;;;;;;;;;;;;;;;;;;;;*&&&&****&***&&&&&&&*&***............",
".......oooooo*******&&&&&XXXXXXX&&****;;;;;;;;;;;;;;;;;;;;;;;;;*&&&&****&***&&&&&&**&&**............",
"       &**&&*&**&&*@+++++XXXXXXX&&&&***&&&&&****&&&&**&&**&&&&**&*&&****&&****&&****&&&&oooooo......",
"       &**&&&&**&**@+++++XXXXXXX&&&&****&&&&***&&&&***&&**&&&&****&&**&&&&****&&****&&&&oooooo......",
"       &*&&&&&&*&&*@@@+++XXXXXXX****&&&&&&****&&&&&&**&&*&&&&&******&&&&&&&&***&**&&**&&oooooo......",
"       &&&&&&&&&&&*@@@+++XXXXXXX****&&&*&&****&&&&&&**&&&&&&&&******&&&&&&*&****&*&&****oooooo......",
"       **&&&&&*&&&&@@++++XXXXXXX***&&&**&***&&&&**&&*****&&&&&&&&&**&&**********&&&&****oooooo......",
"       **&&&&&&*&&&++++++XXXXXXX***&&&**&***&&&&*********&&&&&&&&&&*&**********&&&&&****oooooo......",
"       &&&&&&***&&&++++++XXXXXXX&&&&&&*****&&&****&&&&&*&&&&&**&&&************&&&&&&****oooooo......",
"       &&&&&&&**&&&++++++XXXXXXX**&&&&*****&&*****&&&&**&&&&****&&****&&******&&&&&&***&oooooo......",
"       &&&&&&***&&&++++++XXXXXXX****&*****&&&&****&&****&&******&&**&&&&**&&&&&&&&*&**&&oooooo......",
"                   XXXXXX#######****&&****&&&&****&&****&&******&&**&&&&&&&&&&&&&&****&&&&&&&&      ",
"                   XXXXXX#######&&********&&&********&&&****&&**&&&&&***&&&&&&&&****&&&&*&&&&&      ",
"                   XXXXXX#######&&********&&&&********&&****&***&&&&&&**&*&&*&&&****&&&&*&&&&&      ",
"                   XXXXXX#######&&&&****&&&&&&&&****&&&&**&&&&**&&&&**********&&&*********&&&&      ",
"                   XXXXXX#######&&&&&**&&&&&&&&&&&**&&&&&&&&&&****&***********&&&*********&&*&      ",
"                   XXXXXX#######&&&&***&&&************&&****&*************&&&&**&&&***&&&&&&&&      ",
"                   XXXXXX#######&&&&**&&&&**********&*&&****&&*******&****&&&&**&&&&**&*&&&&&&      ",
"                   XXXXXX#######&&&&****&&&*&&&&**&&&&&&&***&&&&&&**&&&&*&&&****&&&*******&&**      ",
"                   XXXXXX#######*&&&****&&&*&&&&*&&&&&&&&***&&&&&&**&&&&**&&****&&&***********      "
};
